<svg fill="none" height="34" viewBox="0 0 102 34" width="102" xmlns="http://www.w3.org/2000/svg" xmlns:xlink="http://www.w3.org/1999/xlink"><clipPath id="a"><path d="m0 0h102v34h-102z"/></clipPath><g clip-path="url(#a)" fill="#262626"><path d="m15.7011 0c-4.1625.00553786-8.1529 1.66122-11.09623 4.60399-2.94333 2.94276-4.59933107 6.93241-4.60487 11.09411v17.2554c0 .2775.110282.5437.306584.74.196302.1962.462544.3065.740156.3065h29.30876c.2776 0 .5439-.1103.7402-.3065.1963-.1963.3065-.4625.3065-.74v-17.2554c-.0055-4.1617-1.6615-8.15135-4.6048-11.09411-2.9434-2.94277-6.9338-4.59845214-11.0963-4.60399zm-8.62513 31.9069 5.02433-8.3723h7.1807l5.0243 8.3723zm5.48493-10.4654v-5.7434c0-.8327.3308-1.6312.9197-2.22.589-.5888 1.3877-.9196 2.2205-.9196.8329 0 1.6316.3308 2.2205.9196s.9197 1.3873.9197 2.22v5.7434zm12.5609 7.7235-4.187-6.97v-6.4969c0-1.3878-.5514-2.7187-1.5329-3.7001-.9815-.9813-2.3127-1.5326-3.7008-1.5326-1.388 0-2.7193.5513-3.7008 1.5326-.9815.9814-1.5329 2.3123-1.5329 3.7001v6.4969l-4.18695 6.97v-13.4669c0-2.498.99253-4.8938 2.75925-6.66014 1.7667-1.76637 4.1629-2.75872 6.6614-2.75872s4.8947.99235 6.6614 2.75872c1.7668 1.76634 2.7593 4.16214 2.7593 6.66014zm4.187 2.7419h-2.0935v-16.2088c0-3.0531-1.2131-5.98126-3.3724-8.14017-2.1594-2.15891-5.088-3.37177-8.1418-3.37177-3.0537 0-5.98239 1.21286-8.14172 3.37177-2.15932 2.15891-3.37241 5.08707-3.37241 8.14017v16.2088h-2.09349v-16.2088c0-3.6083 1.43366-7.06876 3.98559-9.6202s6.01313-3.98482 9.62203-3.98482c3.609 0 7.0702 1.43338 9.6221 3.98482s3.9856 6.0119 3.9856 9.6202z"/><path d="m56.2845 29.0887v-22.89076h4.903v22.89076zm-14.4149 0v-22.89076h4.9031v22.89076zm1.9612-9.189.0327-4.4473h14.9379v4.4473z"/><path d="m72.9691 29.4157c-1.4382 0-2.7348-.3924-3.8897-1.1772-1.155-.7848-2.0702-1.8531-2.7457-3.2047-.6755-1.3517-1.0133-2.8995-1.0133-4.6436 0-1.744.3378-3.281 1.0133-4.6108.6973-1.3517 1.6343-2.409 2.811-3.172 1.1768-.7849 2.5169-1.1773 4.0205-1.1773.8499 0 1.6235.1308 2.3208.3924.7191.2398 1.3402.5777 1.8631 1.0138.5448.436 1.0024.9374 1.3729 1.5042.3704.5668.6319 1.1773.7845 1.8313l-.9806-.1635v-4.2185h4.6088v17.2989h-4.6742v-4.153l1.046-.0981c-.1744.6104-.4576 1.1881-.8499 1.7331-.3922.5451-.8825 1.0356-1.4709 1.4716-.5666.4142-1.2094.7521-1.9285 1.0137-.7191.2398-1.4818.3597-2.2881.3597zm1.2748-4.0222c.8716 0 1.6343-.2071 2.2881-.6213.6537-.4142 1.1549-.992 1.5036-1.7332.3704-.763.5556-1.6459.5556-2.6488 0-.981-.1852-1.8421-.5556-2.5834-.3487-.7412-.8499-1.3189-1.5036-1.7331-.6538-.436-1.4165-.654-2.2881-.654-.8499 0-1.6017.218-2.2554.654-.6319.4142-1.1331.9919-1.5036 1.7331-.3704.7413-.5557 1.6024-.5557 2.5834 0 1.0029.1853 1.8858.5557 2.6488.3705.7412.8717 1.319 1.5036 1.7332.6537.4142 1.4055.6213 2.2554.6213z"/><path d="m87.8209 29.0887v-24.19881h4.6416v24.19881z"/><path d="m97.2056 29.0887v-24.19881h4.6414v24.19881z"/></g></svg>